<?xml version="1.0" standalone="no"?>
<!DOCTYPE svg PUBLIC "-//W3C//DTD SVG 20010904//EN"
 "http://www.w3.org/TR/2001/REC-SVG-20010904/DTD/svg10.dtd">
<svg version="1.0" xmlns="http://www.w3.org/2000/svg"
 width="343.000000pt" height="76.000000pt" viewBox="0 0 343.000000 76.000000"
 preserveAspectRatio="xMidYMid meet">

<g transform="translate(0.000000,76.000000) scale(0.100000,-0.100000)"
fill="#000000" stroke="none">
<path d="M2625 751 c-79 -20 -152 -88 -173 -160 -28 -91 -6 -208 51 -270 55
-60 175 -87 270 -60 59 16 137 95 137 139 0 6 -26 10 -64 10 -47 0 -67 -4 -77
-17 -21 -25 -74 -43 -108 -37 -36 8 -79 51 -83 84 l-3 25 174 3 174 2 -6 59
c-8 91 -54 163 -128 201 -42 22 -121 32 -164 21z m126 -130 c52 -53 42 -61
-71 -61 -113 0 -123 8 -71 61 23 23 38 29 71 29 33 0 48 -6 71 -29z"/>
<path d="M3080 744 c-103 -45 -155 -178 -119 -307 12 -44 59 -101 103 -124 47
-25 153 -23 199 5 l37 21 0 -40 c0 -60 -42 -99 -105 -99 -36 0 -51 6 -71 25
-21 22 -34 25 -89 25 -75 0 -82 -12 -42 -71 35 -54 107 -84 197 -84 41 0 92 6
113 14 54 18 105 66 117 109 5 21 10 147 10 285 l0 248 -62 -3 c-53 -3 -63 -6
-62 -20 1 -10 1 -18 0 -18 0 0 -23 11 -50 25 -57 29 -123 32 -176 9z m168
-110 c31 -21 52 -66 52 -109 0 -73 -47 -125 -113 -125 -31 0 -46 7 -74 35 -34
34 -35 37 -31 97 4 53 9 65 36 89 37 33 93 39 130 13z"/>
<path d="M1378 736 c-84 -30 -118 -75 -118 -155 0 -77 52 -111 212 -142 88
-16 111 -49 62 -88 -52 -41 -143 -21 -164 35 -8 21 -16 24 -65 24 -53 0 -55
-1 -55 -26 0 -79 102 -147 218 -147 82 1 141 23 181 69 36 40 47 90 32 137
-20 60 -68 87 -187 107 -80 14 -114 32 -114 61 0 26 62 53 104 45 34 -7 66
-33 66 -53 0 -9 16 -13 60 -13 66 0 72 8 45 59 -44 85 -171 125 -277 87z"/>
<path d="M1905 731 c-11 -5 -32 -21 -47 -36 l-28 -28 0 32 0 31 -60 0 -60 0 0
-235 0 -235 65 0 65 0 0 160 c0 157 1 161 25 185 35 36 88 34 112 -2 15 -22
19 -55 21 -185 l4 -158 64 0 64 0 0 159 c0 145 2 161 21 185 27 34 86 37 115
5 17 -19 19 -38 19 -185 l0 -164 68 0 67 0 0 178 c0 202 -11 245 -72 282 -66
40 -195 19 -227 -37 -7 -14 -13 -11 -38 17 -28 31 -36 34 -94 37 -35 1 -73 -1
-84 -6z"/>
<path d="M393 701 c-69 -32 -101 -102 -82 -178 11 -40 52 -89 91 -107 10 -5
10 -7 0 -12 -28 -13 -74 -59 -83 -82 l-10 -25 -17 34 c-26 51 -75 79 -137 79
-156 0 -210 -188 -82 -284 20 -15 43 -20 82 -20 61 0 96 19 130 72 11 17 22
31 25 31 3 0 12 -14 21 -32 17 -35 87 -77 129 -77 45 1 109 37 131 75 l21 35
21 -32 c37 -53 71 -72 132 -72 61 0 95 19 133 74 46 69 18 176 -55 210 -34 16
-43 30 -19 30 22 0 67 41 81 74 l13 31 10 -25 c20 -52 80 -90 142 -90 163 0
215 214 70 288 -24 12 -56 22 -70 22 -45 -1 -109 -37 -131 -75 l-21 -35 -21
32 c-37 53 -72 73 -132 73 -60 0 -95 -20 -132 -74 l-22 -32 -15 30 c-36 69
-128 97 -203 62z m275 -258 c15 -13 33 -23 40 -23 6 0 12 -4 12 -10 0 -5 -7
-10 -16 -10 -21 0 -84 -66 -84 -88 0 -10 -8 -4 -21 17 -23 38 -58 70 -76 71
-22 0 -14 14 20 35 17 11 41 34 52 51 l20 30 13 -25 c7 -14 25 -36 40 -48z"/>
<path d="M1043 133 c13 -3 17 -15 17 -49 0 -24 5 -44 10 -44 6 0 10 20 10 44
0 34 4 46 18 49 9 3 -3 5 -28 5 -25 0 -37 -2 -27 -5z"/>
<path d="M1146 124 c-22 -21 -20 -61 3 -74 25 -13 61 -13 61 1 0 5 -5 7 -10 4
-16 -10 -50 5 -50 21 0 9 11 14 35 14 38 0 40 2 25 31 -13 23 -43 25 -64 3z
m54 -15 c0 -5 -11 -9 -25 -9 -26 0 -34 15 -12 23 16 5 37 -3 37 -14z"/>
<path d="M1246 119 c17 -19 18 -22 2 -50 -19 -32 -6 -41 14 -10 12 20 12 20
26 0 21 -30 33 -22 14 10 -16 28 -15 31 2 50 23 25 11 28 -16 5 -16 -16 -18
-16 -24 0 -3 9 -13 16 -22 16 -13 0 -12 -3 4 -21z"/>
<path d="M1350 90 c0 -27 5 -50 10 -50 6 0 10 11 10 25 0 18 5 25 20 25 15 0
20 -7 20 -25 0 -14 5 -25 10 -25 6 0 10 23 10 50 0 28 -4 50 -10 50 -5 0 -10
-9 -10 -20 0 -13 -7 -20 -20 -20 -13 0 -20 7 -20 20 0 11 -4 20 -10 20 -5 0
-10 -22 -10 -50z"/>
<path d="M1475 124 c-43 -43 19 -110 65 -69 24 22 26 48 4 69 -20 21 -48 20
-69 0z m53 -6 c28 -28 -3 -83 -33 -58 -8 7 -15 20 -15 29 0 17 18 41 30 41 3
0 11 -5 18 -12z"/>
<path d="M1590 102 c0 -21 -5 -43 -12 -50 -7 -7 -8 -12 -2 -12 19 0 34 24 34
57 0 23 5 33 15 33 11 0 15 -12 15 -45 0 -25 5 -45 10 -45 6 0 10 23 10 50 l0
50 -35 0 c-34 0 -35 -1 -35 -38z"/>
<path d="M1707 122 c-22 -24 -21 -45 1 -65 35 -32 82 -10 82 38 0 42 -54 59
-83 27z m51 -4 c28 -28 -3 -83 -33 -58 -8 7 -15 20 -15 29 0 17 18 41 30 41 3
0 11 -5 18 -12z"/>
<path d="M1820 90 c0 -27 5 -50 10 -50 6 0 10 20 10 44 0 38 3 45 23 49 16 3
13 5 -10 6 l-33 1 0 -50z"/>
<path d="M1910 90 c0 -57 12 -64 35 -20 19 37 19 51 0 26 -14 -19 -15 -18 -15
12 0 18 -4 32 -10 32 -5 0 -10 -22 -10 -50z"/>
<path d="M1967 133 c-7 -14 5 -93 14 -93 5 0 9 23 9 50 0 44 -11 65 -23 43z"/>
<path d="M2030 90 c0 -57 12 -64 35 -20 19 37 19 51 0 26 -14 -19 -15 -18 -15
12 0 18 -4 32 -10 32 -5 0 -10 -22 -10 -50z"/>
<path d="M2087 133 c-7 -14 5 -93 14 -93 5 0 9 23 9 50 0 44 -11 65 -23 43z"/>
<path d="M2200 90 c0 -61 16 -65 47 -12 l22 37 1 -37 c0 -21 5 -38 10 -38 6 0
10 23 10 50 0 61 -17 66 -48 13 l-22 -38 0 38 c0 20 -4 37 -10 37 -5 0 -10
-22 -10 -50z"/>
<path d="M2387 122 c-10 -10 -17 -26 -17 -35 0 -23 28 -47 53 -46 22 0 22 0
-1 9 -45 18 -40 68 9 81 l24 7 -26 1 c-14 1 -33 -7 -42 -17z"/>
<path d="M2483 133 c13 -3 17 -15 17 -49 0 -24 5 -44 10 -44 6 0 10 20 10 44
0 34 4 46 18 49 9 3 -3 5 -28 5 -25 0 -37 -2 -27 -5z"/>
<path d="M2570 90 c0 -61 16 -65 47 -12 l22 37 1 -37 c0 -21 5 -38 10 -38 6 0
10 23 10 50 0 61 -17 66 -48 13 l-22 -38 0 38 c0 20 -4 37 -10 37 -5 0 -10
-22 -10 -50z"/>
<path d="M2700 102 c0 -21 -5 -43 -12 -50 -7 -7 -8 -12 -2 -12 19 0 34 24 34
57 0 23 5 33 15 33 11 0 15 -12 15 -45 0 -25 5 -45 10 -45 6 0 10 23 10 50 l0
50 -35 0 c-34 0 -35 -1 -35 -38z"/>
<path d="M2810 90 c0 -48 1 -50 29 -50 16 0 34 6 40 14 17 20 3 46 -25 46 -17
0 -24 6 -24 20 0 11 -4 20 -10 20 -5 0 -10 -22 -10 -50z m55 -20 c0 -8 -8 -16
-17 -18 -13 -2 -18 3 -18 18 0 15 5 20 18 18 9 -2 17 -10 17 -18z"/>
</g>
</svg>
